<?xml version="1.0" encoding="utf-8"?>
<!-- Generator: Adobe Illustrator 24.0.3, SVG Export Plug-In . SVG Version: 6.00 Build 0)  -->
<svg version="1.1" xmlns="http://www.w3.org/2000/svg" xmlns:xlink="http://www.w3.org/1999/xlink" x="0px" y="0px"
	 viewBox="0 0 572.2 204.5" style="enable-background:new 0 0 572.2 204.5;" xml:space="preserve">
<style type="text/css">
	.st0{fill:#7F4291;}
	.st1{fill:#F19124;}
</style>
<g id="Capa_1">
</g>
<g id="Modo_de_aislamiento">
	<g>
		<path class="st0" d="M277.7,173.9c2.5,1.6,5,4.1,5.9,7.5c0.8,0,3.3,0,4.2,0c0.8-0.8,0.8-1.7,0.8-3.4c3.4-0.8,5.9,1.7,7.6,2.5
			c7.6,2.5,15.9,1.6,23.5-0.1c0,0-0.9-2.5,0-4.2c0.9,0,2.5,0,3.3,0v-1.7c3.4,0,7.6,0.8,8.4-0.9c1.7-4.2,4.2-6.7,6.6-10.1
			c0.8-0.8,2.5,0,4.2,0c0-3.4,0-6.7,3.3-7.5c0.8,0,2.5,0,3.4,0c2.4-12.6-0.1-24.3-0.2-36.9c0-3.4,0-7.5-1.8-10.9
			c-1.7-0.8-4.2,0.9-5.9-0.8c-0.9-2.5-1.7-5-2.6-7.5c-1.7-3.4-5-5-5.9-8.4c-1.7-3.4-5.9-0.8-8.4-4.1c-1.7-0.9-5.9,1.7-7.6,0
			c-2.5-1.7-5.9-3.3-8.4-5c-2.5-1.7-6.7-1.6-9.2-0.8c-1.7,0.8,0,4.2-0.8,5c-1.7,0.9-5-0.8-6.7-1.6c-3.4-1.7-10-0.8-10,1.7
			c0,0.9,0,4.2,0,4.2c-5.9,0-12.6-0.8-10.8,6.8c-1.7,0-2.5,0-4.2,0c0.8,1.7,1.7,5,0.8,5c-2.5,1.7-5.8,0.8-8.4,0.9
			c0.9,3.4-1.2,6.7-0.8,9.2c0.9,5.8-7.4,10.1-7.4,14.3c0,2.5,0.8,5,1.7,6.7c2.5,5.9,0.1,12.6,1.8,18.4c0,0,3.4-0.8,3.4,0
			c1.7,2.5,0,6.7,1.7,9.2c0,0.9,3.4-0.8,4.2,0c0.8,1.7,0,4.2,0,5.9C263.4,170.5,272.7,172.2,277.7,173.9"/>
		<path class="st1" d="M162.5,174.5c2.5,1.6,5,4.1,5.9,7.5c0.8,0,3.3,0,4.2,0c0.8-0.8,0.8-1.7,0.8-3.3c3.4-0.8,5.9,1.6,7.6,2.5
			c7.6,2.5,15.9,1.6,23.5-0.1c0,0-0.9-2.5,0-4.2c0.8,0,2.5,0,3.3,0c0,0,0-0.9,0-1.7c3.4,0,7.5,0.8,8.4-0.9c1.7-4.2,4.2-6.7,6.7-10.1
			c0.8-0.9,2.5,0,4.2,0c0-3.3,0-6.7,3.3-7.5c0.8,0,2.5,0,3.3,0c2.5-12.6-0.1-24.3-0.2-36.9c0-3.4-0.1-7.5-1.8-10.9
			c-1.7-0.8-4.2,0.9-5.9-0.8c-0.8-2.5-1.7-5-2.6-7.6c-1.7-3.4-5-5-5.9-8.4c-1.7-3.3-5.9-0.8-8.4-4.1c-1.7-0.9-5.9,1.7-7.5,0
			c-2.5-1.7-5.9-3.3-8.4-5c-2.5-1.7-6.7-1.6-9.2-0.8c-1.7,0.8,0,4.2-0.8,5c-1.7,0.9-5-0.8-6.7-1.6c-3.4-1.7-10.1-0.8-10,1.7
			c0,0.8,0,4.2,0,4.2c-5.9,0-12.6-0.8-10.9,6.7c-1.7,0-2.5,0-4.2,0c0.8,1.7,1.7,5,0.8,5c-2.5,1.7-5.8,0.9-8.4,0.9
			c0.9,3.4-1.2,6.7-0.8,9.2c0.9,5.9-7.5,10.1-7.4,14.3c0,2.5,0.8,5,1.7,6.7c2.5,5.8,0,12.5,1.7,18.4c0,0,3.4-0.9,3.4,0
			c1.7,2.5,0,6.7,1.7,9.2c0,0.9,3.4-0.8,4.2,0c0.8,1.7,0,4.2,0,5.9C148.3,171.1,157.5,172.8,162.5,174.5"/>
		<path d="M34.6,40.8c0,0-3.7-1.4-4.5-5.1c0,0,1.5-7.4-0.8-7.4c0,0-2.2-8.1,2.9-7.3c0,0,1.5-4.4,5.9-0.7c0,0,13.2-2.3,16.2,0.6
			l3-1.5L86,19.9c0,0,4.4-3.7,5.9,0l5.9,0l14-0.1l1.5-2.2c0,0,5.9-0.8,6.7,1.4c0,0,9.6,2.1,14.7-0.1c0,0,8.8,1.4,3.7,5.9
			c0,0-5.9,5.9-6.6,8.1c0,0-6.6,4.5-8.1,10.4c0,0-0.7,6.6-4.3,7.4c0,0,3,5.9-5.9,6.7l0.8,7.4c0,0-3.7-2.2-2.2,6.6
			c1.5,8.8-2.2,2.2-2.2,2.2l-5.2-0.7c0,0-0.7,4.4-3.6,7.4l0.1,13.2c0,0-3.7,1.5-7.4,0.8l0,8.8c0,0-2.9,0-2.9,2.9l-4.4,0
			c0,0-2.1,11.8-12.4,17l-1.4,10.3l-2.2,0.8l1.5,4.4l-4.4,2.2c0,0-3.6,6.7-11,7.4l0.8,10.3c0,0-5.1,3.7-5.1,7.4
			c0,0,8.1-5.2,13.3,1.4h2.9c0,0,3.6-4.4,12.5,2.9c0,0,2.9-5.2,7.4-3c0,0-2.2-8.1,11.8,1.4c0,0,5.2,2.2,8.1-0.8l9.6-1.5
			c0,0,2.9-5.9,10.3-0.1c0,0,17.6-3,8.2,7.3c0,0-0.7,5.9,3.7,7.3c0,0,6.6,2.2,2.2,7.3c0,0-16.9,0.8-22.8-2.1c0,0,0.7,4.4-2.9,5.2
			c0,0-6.6-2.9-8.8-2.9l-5.2,0l0.7-2.2h-3.7c0,0-0.7,5.9-7.4,3l-4.4-1.5c0,0,0.8,2.2-2.9,0.7c0,0-5.1-0.7-2.9-2.9c0,0-3.7,0-5.1,2.2
			c0,0-5.9,1.5-3.7-2.9l-8.1,3.7c0,0-2.2-0.7-4.4-2.2c0,0-2.2,4.4-11.8,0.1c0,0-8.1,6-8.1-1.4l-9.5,3c0,0-5.2,1.5-3-3l-6.6,1.5
			c0,0-8.8,8.2-5.9-2.9c0,0,2.2-4.4,5.1-4.4c0,0,0-6.6,6.6-8.1c0,0,1.4-8.9,5.9-8.1c0,0-3-0.7,5.1-7.4l-1.5-5.9l6.6-3.7l0-8.1
			l5.9-5.9l0.7-8.8l4.4,0l0.7-3.7l6.7-3c0,0-0.8-5.2,4.3-13.3c0,0-3-2.9,8-11.8c0,0-1.5-5.9,5.1-10.3l-1.5-4.4l2.9-2.2l0-2.2
			l3.7-0.8c0,0,2.2-5.2,4.4-3c0,0-3-8.8,4.3-16.2l0.7-5.9c0,0,2.2-3.7,6.6-4.4c0,0,6.6-3.7-6.7-6.6c0,0-2.9,5.2-8.8,0
			c1.9,1.7-5.9,2.2-5.9,2.2s-5.9,0-8.1,0.8c0,0-3.6,4.5-9.5-2.1c0,0-8.1,4.4-11,3.7c-2.9-0.7-5.9,2.2-9.6-4.4
			C40.5,35.6,39.8,42.2,34.6,40.8"/>
		<path d="M132.5,131.3c0-1-1.5-1.5-1.5-2c-1-3.4-1.5-6.4-1-9.8h1c1.5-2.5,0-5.4,1.9-6.9c2-2.5,2.9-5.4,3.9-8.4
			c0.5-1,2.9-1.5,4.4-2.4c1-0.5,0-3.5,0.5-4.9c0.5-1.5,2.5-1.5,3.9-2c1.5-1.5,2.4-3,3.9-4.4c0.9-0.5,2.4,0,2.4,0
			c1.5-3,2.9-5.4,5.4-7.4c2-1.9,5.4-1.9,8.3-1.5c0-1,1-2.4,1.4-2.4c6.9-2,14.2-3,21.1-3.1c0.5,0,0.5,0.5,0.5,1c0-1,3.4,0,4.4-0.5
			c1-1,2-1,2.9-1.5V77c3,1,6.4-0.5,8.9,1c1.4,0.5,1,2.9,1,4.9c3.9,0,7.4-0.5,11.3,0v2c1.5,0,2.5,0.5,3.4,1c1,1.5,0.5,3.9,2,5.4
			c1.5,1.9,4.9,1.9,6.4,3.9c1,1,0,3.4,0.5,4.9c0.5,0.5,1.5,1,2.4,1.5c3.4,1.9,3,6.3,5.9,9.3c0.5,0,1.5,0,1.5,0
			c2.5,7.8,1.5,16.2,1.1,24.5c0,2,1,4.9,0,7.4h-1c0,4.9,0.1,9.8,0.1,14.7c-1.5,0-2.5,0-3.9,0.5c-0.5,0.1,0,5.4-2.4,6.9
			c-1,1-3.4,0-5.4,0.5c-1.5,1-3.4,4-1.5,5.4c1.5,0.5,2.9-0.5,4.4,0v2c-0.9,0.5-2.9-0.5-3.9,0c-1,1.5-3.5,2-4.9,2.5
			c-1.5,1-1,2.9-1,4.9c-1,0-1.9,0.5-2.9,1c-1.5,1-2.5,2-3.9,2.5c-4.4,3-10.3,0.1-14.2,2.1c-3.9,1.5-7.3,1-10.8,2.5
			c-2.5,1-4.9,0.5-7.4,0.6c0.4,1-1,0-1,1c-4.4,0.5-8.3,0-12.7-0.9c-2.4-0.5-3-3.4-6.4-4.4c-1,0-0.5-2-0.5-3.4c-2,0-4.4,0.5-6.4-0.5
			c-0.5,0,0.5-2,0-2.5c-2-1-3.5-1.5-5.4-2.9c0-1-1.5-1.4-2.9-1.4c-1,0-3.9-2.9-4.5-5.9c0-2-2.5-2.5-3.9-3.4c-1.5-1-3.5-1.5-3.9-1.9
			c-1-2-0.5-4.4-0.6-6.4c2.5,0,2.5-2.9,2-4.4c-0.5-1.5-3-1.5-3.9-2.9c-1-2.4,0-5.4-1.5-6.8c-1-1.5-1-2.9-1-4.4
			c0.5-0.5,1.5-1,1.5-1.4C130.1,133.8,132.5,133.3,132.5,131.3 M142.8,136.7c-0.5,1.5-2.5,2.5-1,4.4c1,2,4.4,1,4.9,2.9
			c1,2.9,0.5,6.9,1.5,9.8c0,1,2.9,1,3.5,2c0.5,1.9-0.5,4.4,0.5,5.4c0.5,1,3.9-0.5,4.9,0.9c1,1.5,0.5,3,0.5,4.4
			c1.5,0,3.9-0.5,4.9,0.5c0.5,0.5-0.9,3.4,0.5,3.9c4.9,1.5,9.8,2.9,13.8,6.8v1.5c1.5-1,2.4-3,3.9-3c5.9-1.5,12.3,0,18.2-0.1
			c0.5-0.5,0.5-1.5,0.5-2.4c1.5,0,2.4,0,3.9,0c0-0.5,0-1,0.5-1c1,0,2,0,2.5,0c0.5-1.5-0.5-3.9,0.5-4.4c1.4-1.5,4.4-0.5,6.9-0.5
			c-0.5-4.5,5.9-4.5,6.3-7.4c0.5-3,2.4-4.4,4.4-6.4c0.5-0.5,0-2,0-2.9l1,0c1-2.5-0.5-6.9,3.9-5.9c0-2,0-3.4,0-5.4h-1
			c0-3,1-5.4,0.5-8.3c-1.5-4.9-0.6-9.8-2-14.7c-1,0-1.5,0-2-0.5c0-2.5-1.5-3.9-2.9-5.9c-3.5-5.4-7-11.2-11.9-15.6
			c-1.5-1-2.9-0.9-4.4-1.5c-2.9-1.4-7.3,0-9.3-1.4c-3-2.4-5.9-3.4-9.4-3.4c-2,0-3.4,0-5.4,0c-0.5,0-0.5,1-1,1c-1.5,0-2.9-0.5-3.9,0
			c-2.4,3-4.9,3.9-8.8,3.5c0,0.5,0,1.5,0,2c-2,2-4.4,3-7.4,2.5c0,1,0.5,2.4,0,3c-0.5,0.5-2.4-0.5-2.9,0c-0.5,0.5,0.5,1.9,0,2.5
			c-1,0.5-3-0.5-2.9,0c-2.4,4.4,0,9.8-3.4,13.3c-1.9,1-4.9,1-5.9,2.5c-1,1-0.5,2.9-0.4,4.4C144.7,127.8,144.3,132.2,142.8,136.7"/>
		<path d="M247.9,145.7c-3.4-10-1.6-20.6-0.2-30.9c0-2.2,5.1-1.5,5.9-3c2.2-2.2-1.5-6.6,0.7-10.3h1.5c1.5,0,5.8-9.6,10.2-8.9
			c-0.7-1.5,0-3.7,0.7-5.2c3.6-3.7,8.8-7.4,14.7-6.7c1.5,0,0-2.2,0.7-2.9c2.9-0.8,6.6-0.8,8.8-1.5c8.8-3,19.1-0.1,28.7-0.1
			c-0.7,0.7,0.7,1.5,0.7,2.2c4.5,2.2,8.9,1.4,13.3,2.9c1.5,0,3.7,0.7,5.2,2.2c0.7,2.2-1.5,5.9,0.7,7.4c6.6,3.6,14,10.2,12.6,18.3
			c5.2,2.2,5.9,8.1,8.9,12.5c-3.7-5.5-5.1,8.8-3.6,11.8c2.2,3.7,1.5,8.8,1.5,12.5c0,0.7-1.5,1.5-2.2,2.2c-2.2,4.4-1.4,9.5-2.9,14
			c-0.7,3.6-6.6,3.7-10.3,5.2c-3.7,1.5-4.4,8.1-8.8,10.3c-2.2,0.7-5.9,0-8.1,1.5c-0.7,1.5-2.2,2.9-2.9,2.9c-2.9,1.5-7.4,0-10.3,1.5
			c-2.9,2.2-6.6,3.7-10.3,3c0,0.7,0,1.5,0,1.5c-0.7,0-2.2,0-2.9,0c-0.8-3.7-5.2-3-7.4-2.9v1.5c-2.9,0.7-5.9,2.2-8.1,0v-2.2
			c-0.8-0.7-2.9,0.8-3.7,0c-2.2-2.2-5.2-2.2-8.1-3.6c-0.7,0-2.9-2.2-2.2-4.4c-3-0.7-2.2-4.4-5.2-5.2c-1.5,0-3.7,0.8-4.4,0
			c-0.7-1.5,0.7-4.4,0-5.2c-1.5-1.4-5.2,0-6.6-1.4c-0.7-0.8,0.7-3.7,0-5.1c-2.2-1.5-3.7-3.7-3-5.9c-1.5,0-1.5-1.4-2.2-2.2
			C248.6,150.1,248.6,147.9,247.9,145.7 M281.8,166.9c2.2,1.4,4.4,3.6,5.2,6.6c0.7,0,2.9,0,3.7,0c0.7-0.8,0.7-1.5,0.7-3
			c2.9-0.7,5.2,1.5,6.6,2.2c6.6,2.2,14,1.4,20.6-0.1c0,0-0.8-2.2,0-3.7c0.8,0,2.2,0,2.9,0v-1.5c3,0,6.6,0.7,7.4-0.8
			c1.4-3.7,3.7-5.9,5.8-8.9c0.8-0.7,2.2,0,3.7,0c0-3,0-5.9,2.9-6.6h2.9c2.1-11.1-0.1-21.3-0.2-32.4c0-2.9,0-6.6-1.5-9.5
			c-1.5-0.7-3.7,0.7-5.2-0.7c-0.7-2.2-1.5-4.4-2.2-6.6c-1.5-3-4.4-4.4-5.2-7.3c-1.5-3-5.1-0.7-7.4-3.6c-1.5-0.8-5.1,1.5-6.6,0.1
			c-2.2-1.5-5.2-2.9-7.4-4.4c-2.2-1.5-5.9-1.5-8.1-0.7c-1.5,0.7,0,3.7-0.7,4.4c-1.5,0.8-4.4-0.7-5.9-1.4c-3-1.5-8.9-0.7-8.8,1.5
			c0,0.8,0,3.7,0,3.7c-5.1,0-11.1-0.6-9.5,5.9c-1.5,0-2.2,0-3.7,0c0.7,1.5,1.5,4.4,0.7,4.4c-2.2,1.5-5.1,0.7-7.3,0.8
			c0.7,3-1,5.9-0.7,8.1c0.8,5.1-6.6,8.9-6.6,12.5c0,2.2,0.7,4.4,1.5,5.9c2.2,5.2,0.1,11.1,1.5,16.2c0,0,2.9-0.8,2.9,0
			c1.5,2.2,0,5.9,1.5,8.1c0,0.8,2.9-0.7,3.7,0c0.7,1.4,0,3.7,0,5.1C269.3,163.9,277.4,165.4,281.8,166.9"/>
		<path d="M397.8,108.8c0,0-23.5,9-25.1-10.9c-1.6-19.9-6-24.3,5.7-31.7c11.7-7.4,35.9-21.5,37.5,2.8
			C417.6,93.3,422.1,99.9,397.8,108.8"/>
		<path d="M445.6,98.3c0,0-37.6-11.6-17.9-34.5c19.7-22.9,27.1-28.1,47-21.6c8.8,2.9,8.1,11.7,8.1,11.7S464.8,110,445.6,98.3"/>
		<path d="M473.7,119.5c0,0-17.8-7.6,3.5-34.6c20.4-25.9,35.4-26.4,45.6-9.1c8.2,14-10.1,36.8-16.7,42
			C499.5,123,487.7,130.5,473.7,119.5"/>
		<path d="M493.8,170.2c0,0-19.3-32.6,4.9-41.2c12.5-4.5,12.5-3.7,19.1-5.3c6.6-1.5,22.7-11.9,27.9-0.9
			C551,133.8,507.2,196.6,493.8,170.2"/>
		<path d="M378.9,148c0,0-13.3-16.6,9.4-21.4c17.6-3.8,27.1-12,31.6-14.9c8.1-5.2,14-7.4,22.8-5.3c8.8,2.1,24.3,4.3,24.4,19
			c0,14.7,13.4,38.2,18.6,44.8c5.2,6.6,6.2,23.4-18.3,24.4c-22.1,0.8-39,3.1-72.3-26.9C389.7,162.8,387.8,164.9,378.9,148"/>
		<path d="M408.5,41.8c0,0-8.1-5.9,8-17l8.1-3.7c0,0-3.6,3.7-4.3,13.3C420.2,34.4,418.8,43.3,408.5,41.8"/>
		<path d="M485,29.7c0,0-5.6,10.5-11.8,4.5c-3.7-3.7,6.5-18.4,15.4-19.2C488.6,14.9,484.2,25.2,485,29.7"/>
		<path d="M519.7,56.7c0,0-6.3-6.9,3.6-14c5.1-3.7,6.6-3.7,7.3-10.3C530.6,32.4,535.9,55.9,519.7,56.7"/>
		<path d="M555.9,80.8c0,0,6.7,25.9-8,22.8c-10.3-2.1-0.1-14.7-0.1-14.7S555.9,85.9,555.9,80.8"/>
		<path d="M182.9,45.1l10.4,13.1c-3,1.8-6.4,2.7-10.1,2.7c-5.4,0-10-1.8-13.9-5.6c-3.8-3.8-5.7-8.4-5.8-13.9c0-3.8,0.9-7.1,2.5-10.2
			c1.7-3,4.1-5.5,7.2-7.3c3.1-1.8,6.3-2.7,9.8-2.8c3.4,0,6.7,0.9,9.9,2.7c3.1,1.8,5.5,4.2,7.3,7.1c1.7,3,2.6,6.3,2.6,10
			c0,5.8-2,10.6-6,14.6l-8.4-10.5L182.9,45.1z M205.9,50.8c1.3-3,1.9-6.3,1.9-9.8c0-6.9-2.4-12.7-7.2-17.4c-4.8-4.7-10.6-7-17.5-7
			c-4.5,0-8.5,1.1-12.3,3.3c-3.7,2.2-6.7,5.2-8.8,9c-2.1,3.8-3.2,8-3.2,12.5c0,6.7,2.4,12.4,7.2,17.1c4.7,4.7,10.6,7,17.5,7
			c4.7,0,9-1.2,12.8-3.6l4.8,6l5.7,0l-6.9-8.7C202.6,56.6,204.6,53.8,205.9,50.8"/>
		<path d="M217.4,45.7l-0.1-28.1l4.7,0l0.1,28.1c0,3.3,0.1,5.4,0.2,6.2c0.2,1.9,0.8,3.4,1.6,4.6c0.9,1.3,2.2,2.2,3.9,3.1
			c1.8,0.8,3.5,1.2,5.3,1.2c1.5,0,3-0.3,4.4-1c1.4-0.7,2.6-1.6,3.5-2.7c0.9-1.2,1.6-2.5,2-4.2c0.3-1.2,0.4-3.6,0.4-7.3l-0.1-28.1
			l4.6,0l0.1,28.1c0,4.2-0.4,7.6-1.2,10.1c-0.8,2.6-2.4,4.8-4.8,6.7c-2.4,1.9-5.4,2.8-8.8,2.9c-3.8,0-6.9-0.8-9.6-2.6
			c-2.7-1.8-4.5-4.2-5.4-7.1C217.7,53.7,217.4,50.4,217.4,45.7"/>
		<rect x="258.9" y="17.4" transform="matrix(1 -5.187851e-03 5.187851e-03 1 -0.2075 1.3558)" width="4.6" height="46.5"/>
		<polygon points="279.9,21.8 269.5,21.9 269.5,17.3 295,17.2 295,21.8 284.6,21.8 284.9,63.8 280.1,63.8 		"/>
		<path d="M334,23.1c3.1,1.8,5.6,4.1,7.3,7.1c1.7,3,2.6,6.3,2.6,10c0,3.7-0.8,7.1-2.5,10.1c-1.7,3-4.1,5.4-7.2,7.2
			c-3.1,1.7-6.4,2.6-10,2.7c-5.4,0-10-1.9-13.9-5.7c-3.9-3.8-5.8-8.4-5.8-13.9c0-3.7,0.8-7.1,2.6-10.2c1.7-3.1,4.1-5.5,7.1-7.3
			c3.1-1.8,6.3-2.7,9.8-2.8C327.6,20.4,330.9,21.3,334,23.1 M311.7,19.2c-3.7,2.2-6.7,5.2-8.8,9c-2.1,3.8-3.2,8-3.2,12.4
			c0,6.7,2.4,12.4,7.2,17.1c4.8,4.7,10.6,7,17.5,7c6.8,0,12.6-2.5,17.2-7.2c4.7-4.8,7.1-10.5,7-17.4c0-6.9-2.4-12.6-7.2-17.3
			c-4.8-4.7-10.7-7-17.7-7C319.5,15.9,315.4,17,311.7,19.2"/>
	</g>
</g>
</svg>
